<svg width="32" height="34" viewBox="0 0 32 34" fill="none" xmlns="http://www.w3.org/2000/svg">
<path fill-rule="evenodd" clip-rule="evenodd" d="M18.3328 2.69671C18.7973 3.07656 19.0667 3.6449 19.0667 4.24494L19.0667 28.6741C19.0667 29.3386 18.7366 29.9596 18.186 30.3315L15.4454 32.1823C14.1171 33.0793 12.3261 32.1277 12.3261 30.5249L12.3261 2.00379C12.3261 0.316773 14.2862 -0.612397 15.5922 0.455561L18.3328 2.69671ZM6.1278 10.615C6.1278 9.96702 5.81384 9.35917 5.2854 8.98409L3.1576 7.47384C1.83327 6.53386 0 7.48077 0 9.10478V30.5885C0 32.1431 1.69594 33.1033 3.02899 32.3035L5.15679 31.0268C5.7592 30.6653 6.1278 30.0143 6.1278 29.3118L6.1278 10.615ZM31.2541 17.4043C31.2541 16.6526 30.8326 15.9643 30.1629 15.6227L28.0351 14.5372C26.7044 13.8584 25.1263 14.8249 25.1263 16.3188V31.0937C25.1263 32.6002 26.7289 33.5659 28.0609 32.8619L30.1887 31.7372C30.8441 31.3908 31.2541 30.7103 31.2541 29.969L31.2541 17.4043Z" fill="black"/>
</svg>
